<mxfile host="app.diagrams.net" modified="2023-05-01T04:58:07.926Z" agent="Mozilla/5.0 (X11; Linux x86_64) AppleWebKit/537.36 (KHTML, like Gecko) Chrome/112.0.0.0 Safari/537.36" version="21.2.2" etag="mSKTDRqGR-YWUbDD1oWR" type="github">
  <diagram name="Page-1" id="EN15iCE0LRGl2N9zQ0-E">
    <mxGraphModel>
      <root>
        <mxCell id="0" />
        <mxCell id="1" parent="0" />
      </root>
    </mxGraphModel>
  </diagram>
</mxfile>
